<?xml version="1.0" encoding="UTF-8" standalone="no"?>
<svg
   xmlns:dc="http://purl.org/dc/elements/1.1/"
   xmlns:cc="http://creativecommons.org/ns#"
   xmlns:rdf="http://www.w3.org/1999/02/22-rdf-syntax-ns#"
   xmlns:svg="http://www.w3.org/2000/svg"
   xmlns="http://www.w3.org/2000/svg"
   viewBox="0 0 681.46667 204.13333"
   height="204.13333"
   width="681.46667"
   xml:space="preserve"
   id="svg2"
   version="1.1"><metadata
     id="metadata8"><rdf:RDF><cc:Work
         rdf:about=""><dc:format>image/svg+xml</dc:format><dc:type
           rdf:resource="http://purl.org/dc/dcmitype/StillImage" /></cc:Work></rdf:RDF></metadata><defs
     id="defs6" /><g
     transform="matrix(1.3333333,0,0,-1.3333333,0,204.13333)"
     id="g10"><g
       transform="scale(0.1)"
       id="g12"><path
         id="path14"
         style="fill:#ee222c;fill-opacity:1;fill-rule:nonzero;stroke:none"
         d="m 276.18,1243.61 c 0,0 169.16,2.5 138.402,-193.85 C 386.297,914.824 261.703,906.035 250.824,906.023 H 40.0039 l 10.6758,54.711 H 92.043 L 142.746,1188.9 H 94.0469 l 12.0191,54.71 H 276.18 m 360.929,0 -10.675,-54.71 h -34.692 l -16.008,-78.72 h 92.067 l 16.008,78.72 h -28.016 l 10.672,54.71 H 806.566 L 795.895,1188.9 H 769.203 L 756.09,1130.2 715.832,960.734 h 34.695 L 739.852,906.023 H 590.41 l 10.055,54.114 32.64,0.597 c 0,0 19.153,82.426 20.016,94.736 h -90.73 l -22.688,-94.736 h 33.36 L 562.391,906.023 H 412.945 l 10.68,54.711 h 33.352 l 50.707,228.166 h -29.36 l 12.016,54.71 z m 216.051,0.02 172.23,-0.02 c 26.11,-0.06 93.24,-18.98 87.46,-90.07 -5.46,-67.08 -72.79,-74.06 -72.79,-74.06 9.3,-3.76 58.26,-28.91 46.96,-95.085 -11.72,-58.438 -71.78,-74.09 -84.31,-76.739 -13.542,-2.871 -56.886,-1.633 -73.39,-1.633 H 775.875 l 9.285,54.711 h 36.711 l 51.41,228.166 h -30.687 z m 294.22,-0.02 h 139.54 l -12.35,-54.71 c 0,0 -23.2,0 -29.02,0 l 10.68,-154.78 88.06,154.78 h -30.69 l 11.44,54.71 h 121.99 l -10.67,-54.71 h -30.69 c 0.29,-9.35 10.67,-154.78 10.67,-154.78 l 85.39,154.78 h -30.68 l 11.64,54.71 h 135.16 l -11.25,-54.71 h -22.14 L 1416.4,903.234 h -72.37 l -7.74,140.236 -77.44,-140.236 h -73.69 l -17,285.666 h -32.02 z M 322.891,1073.43 c 23.234,130.79 -92.082,115.29 -92.082,115.29 0.453,-5.83 -30.903,-139.93 -30.903,-139.93 l -19.804,-88.056 h 36.031 c 16.805,0.02 86.39,-6.437 106.758,112.696 z m 645.129,34.15 c 0,0 47.95,-5.92 56.86,37.83 8.75,47.97 -39.517,43.4 -39.517,43.4 H 962.676 L 944,1107.58 Z M 938.316,960.734 c 8.872,0.145 51.094,-7.511 60.852,44.406 10.242,62.61 -49.492,53 -65.848,53 l -21.785,-97.406 h 26.781" /><path
         id="path16"
         style="fill:#fffffc;fill-opacity:1;fill-rule:nonzero;stroke:none"
         d="m 2543.18,772.598 c 34.06,0 61.36,3.476 90.73,-18.36 51.54,-38.34 51.59,-148.672 -42.7,-164.441 l 31.32,-100.067 h 31.4 l -13.27,-54.421 -85.47,-0.289 -39.22,149.921 -44.84,-0.488 -21.35,-94.723 h 30.68 l -12.46,-54.421 -151.65,-0.289 12,54.71 h 33.36 l 52.04,228.161 h -32.02 l 12,54.707 h 149.45 m 18.65,-131.043 c 19.48,14.605 23.02,57.222 0,70.293 -13.72,7.808 -43.91,6.043 -60.02,6.043 l -6.61,-29.356 -13.4,-58.711 c 24.29,0 59.82,-3.406 80.03,11.731" /><path
         id="path18"
         style="fill:#fffffc;fill-opacity:1;fill-rule:nonzero;stroke:none"
         d="m 2037.97,772.402 -24.02,-109.414 h -65.38 l 12.01,54.707 -91.25,0.332 -22.16,-83.066 h 80.06 l -12.01,-54.707 h -80.06 l -21.35,-90.734 h 94.73 l 12.51,53.378 h 65.16 l -25.63,-107.777 h -278.8 l 13.49,54.399 h 31.81 l 52.04,228.175 h -29.36 l 10.68,54.707 h 277.53" /><path
         id="path20"
         style="fill:#fffffc;fill-opacity:1;fill-rule:nonzero;stroke:none"
         d="M 356.191,772.402 332.176,662.988 h -65.383 l 12.008,54.707 -91.25,0.332 -22.164,-83.066 h 80.058 L 233.438,580.254 H 153.379 L 132.027,489.52 h 94.739 l 12.504,53.378 h 65.156 L 278.801,435.121 H 0 l 13.4883,54.399 h 31.8086 l 52.039,228.175 H 67.9844 l 10.6758,54.707 H 356.191" /><path
         id="path22"
         style="fill:#fffffc;fill-opacity:1;fill-rule:nonzero;stroke:none"
         d="m 2360.29,772.402 -24.02,-109.414 h -65.38 l 12.01,54.707 -91.25,0.332 -22.16,-83.066 h 80.05 l -12,-54.707 h -80.06 l -21.35,-90.734 h 94.73 l 12.51,53.378 h 65.15 L 2282.9,435.121 h -278.8 l 13.49,54.399 h 31.81 l 52.03,228.175 h -29.35 l 10.68,54.707 h 277.53" /><path
         id="path24"
         style="fill:#fffffc;fill-opacity:1;fill-rule:nonzero;stroke:none"
         d="m 3479.55,592.129 c 0,0 152.5,0.644 154.46,-1.024 -11.18,-114.753 -104.09,-161.617 -204.51,-161.617 -70.42,0 -165.8,50.762 -156.23,162.985 9.56,112.215 123.94,185.554 207.06,185.554 73.29,0 86.46,-14.968 107.19,-32.773 l 6.72,27.344 h 56.63 l -24.01,-109.414 -55.59,-0.274 c 0,0 2.81,51.778 -73.84,54.199 -70.6,-2.675 -123.97,-64.304 -131.26,-132.441 -5.28,-71.188 40.72,-96.867 83.64,-94.938 42.93,1.918 63.02,24.532 70.06,46.286 l -51.88,-0.293 11.56,56.406" /><path
         id="path26"
         style="fill:#fffffc;fill-opacity:1;fill-rule:nonzero;stroke:none"
         d="m 947.496,592.129 c 0,0 152.494,0.644 154.454,-1.024 -11.17,-114.753 -104.095,-161.617 -204.509,-161.617 -70.414,0 -165.796,50.762 -156.23,162.985 9.566,112.215 123.945,185.554 207.066,185.554 73.283,0 86.463,-14.968 107.183,-32.773 l 6.72,27.344 h 56.63 l -24.01,-109.414 -55.59,-0.274 c 0,0 2.82,51.778 -73.839,54.199 -70.601,-2.675 -123.973,-64.304 -131.258,-132.441 -5.285,-71.188 40.723,-96.867 83.649,-94.938 42.918,1.918 63.015,24.532 70.051,46.286 l -51.879,-0.293 11.562,56.406" /><path
         id="path28"
         style="fill:#fffffc;fill-opacity:1;fill-rule:nonzero;stroke:none"
         d="m 2906.85,772.539 -12.88,-54.844 -35.16,0.137 -52.03,-228.16 h 46.7 l -10.68,-54.711 h -180.12 l 12,54.711 h 44.04 l 52.03,228.16 h -46.7 l 10.68,54.707 h 172.12" /><path
         id="path30"
         style="fill:#fffffc;fill-opacity:1;fill-rule:nonzero;stroke:none"
         d="m 1336.89,772.539 -12.89,-54.844 -35.15,0.137 -52.03,-228.16 h 46.7 l -10.68,-54.711 h -180.12 l 12,54.711 h 44.04 l 52.03,228.16 h -46.7 l 10.68,54.707 h 172.12" /><path
         id="path32"
         style="fill:#fffffc;fill-opacity:1;fill-rule:nonzero;stroke:none"
         d="m 1504.44,772.598 77.17,-226.836 38.69,172.129 h -32.02 l 12.01,54.707 h 124.09 l -10.67,-54.707 -32.92,0.019 -65.82,-286.89 h -74.73 l -11.75,36.011 -76.31,229.512 -48.04,-206.813 h 36.03 l -10.67,-54.71 h -129.43 l 12.01,54.71 h 32.02 l 52.04,228.161 h -32.02 l 12.01,54.707 h 128.31" /><path
         id="path34"
         style="fill:#fffffc;fill-opacity:1;fill-rule:nonzero;stroke:none"
         d="m 537.988,772.598 77.168,-226.836 38.699,172.129 H 621.82 l 12.016,54.707 H 757.93 l -10.676,-54.707 -32.91,0.019 -65.828,-286.89 H 573.797 L 562.035,467.031 485.727,696.543 437.695,489.73 h 36.024 l -10.672,-54.71 h -129.43 l 12.016,54.71 h 32.015 l 52.043,228.161 H 397.66 l 12.016,54.707 h 128.312" /><path
         id="path36"
         style="fill:#fffffc;fill-opacity:1;fill-rule:nonzero;stroke:none"
         d="m 3072.66,772.598 77.17,-226.836 38.7,172.129 h -32.03 l 12.01,54.707 h 124.09 l -10.67,-54.707 -32.92,0.019 -65.82,-286.89 h -74.72 l -11.76,36.011 -76.3,229.512 -48.04,-206.813 h 36.02 l -10.67,-54.71 h -129.43 l 12.01,54.71 h 32.02 l 52.05,228.161 h -32.03 l 12.01,54.707 h 128.31" /><path
         id="path38"
         style="fill:#ee222c;fill-opacity:1;fill-rule:nonzero;stroke:none"
         d="m 2307.67,893.352 c -10.55,7.293 -12.53,24.734 -17.84,35.359 -7.5,14.023 -24.56,21.418 -23.53,38.691 0,12.137 3.12,17.188 16.01,18.411 15.01,-2.102 13.74,-9.473 44.04,-9.075 136.93,-8.093 275.37,-7.824 412.3,-14.675 3.69,-0.04 14.47,-1.836 11.77,5.347 -1.39,3.75 -7.34,7.699 -10.44,10.219 -27.84,22 -14.13,40.561 -16.87,63.161 -10.1,16.4 -26.56,29.85 -25.83,50.7 6.83,61.79 31.69,69.82 89.4,85.03 23.18,-1.37 21.71,-31.18 4.01,-39.52 -23.61,-6.29 -61.1,-6.56 -66.52,-36.17 9.39,-21.3 23.47,-31.92 27.59,-57.36 1.2,-12.21 -3.74,-15.19 -1.63,-21.36 10.63,-10.92 15.63,-22.872 19.95,-37.286 1.2,-2.636 3.59,-5.254 6.77,-3.855 75.85,99.961 143.14,205.961 208.15,313.161 2.83,4.85 34.85,57.22 19.84,-17.35 -32.39,-103.19 -61.78,-114.18 -189.15,-313.233 -0.04,-3.43 2.84,-4.633 5.71,-5.188 l 21.32,-1.687 81.39,-2.609 160.11,-5.325 c 3.56,-0.086 9.92,-0.535 12.55,2.121 2.57,2.559 6.94,8.555 2.14,27.215 -26.39,173.836 -45.56,348.606 -64.05,523.486 0,5.35 3.62,18.63 7.55,22.83 8.01,8.67 29.85,9.59 35.72,-1.98 24.57,-120.44 26.72,-243.8 41.09,-365.53 l 10.37,-81.4 c 6.53,0.16 14.19,3.21 18.69,1.51 27.48,-25.27 46.2,-60.09 71.27,-88.22 12.53,-11.512 26.57,-21.856 34.35,-37.383 1.81,-4.422 0.5,-12.657 4.8,-15.34 123.46,-11.145 243.32,-21.848 367.25,-23.352 19.66,0.75 73.44,-4.785 42.57,-37.168 -168.36,-6.023 -341.67,1.993 -509.57,23.516 -8.38,-0.715 -7,3.312 -10.86,-12.605 -4.71,-12.872 -29.04,-8.45 -31.5,-5.43 -4.17,8.672 2.91,15.301 -5,18.68 -73.08,5.683 -138.3,1.218 -214.16,6.335 -177.3,14.7 -226.81,17.864 -499.69,28.352 -14.76,0.566 -24.6,8.867 -27.19,4.473 -1.74,-9.61 10.47,-18.407 17.23,-23.477 4.36,-2.707 7.03,-2.09 11.95,-5.344 -25.26,-5.086 -85.06,-21.531 -92.06,-16.675 m 1451.38,174.288 c 431.24,-86.988 888.34,-170.949 1282.6,-375.101 0,0 37.58,-18.934 44.03,-25.496 12.64,-12.883 24.22,-30.766 25.35,-49.23 -0.55,-18.29 -3.07,-37.391 -9.07,-54.7 -21.85,-34.035 -100.85,-60.644 -133.69,-75.644 -30.45,-10.938 -36.47,-36.84 -42.2,-64.789 -10.79,-18.602 -32.16,-27.078 -50.22,-37.032 -10.04,-4.347 -5.98,-3.976 -18.34,-4 -287.11,-0.238 -339.08,-4.777 -552.39,5.293 -10.8,3.231 -15.83,3.547 -16.5,15.579 -1.91,-10.43 -3.71,-13.879 -9.02,-23.809 -32.01,-92.82 -110.46,-117.5 -250.69,-121.16 -149.67,-3.903 -277.8,127.98 -278.46,286.004 -0.37,94.504 53.29,198.269 149.34,266.98 33.27,20.395 70.45,25.168 108.09,30.703 15.66,1.282 13.77,-12.808 2.75,-20.066 -12.48,-4.387 -26.51,-4.805 -38.78,-9.902 -135.79,-56.446 -187.02,-168.934 -185.86,-291.008 0.82,-86.442 106.21,-232.481 244.98,-229.801 139.57,2.687 193.23,35.789 226.66,116.277 45.5,109.563 -7.74,277.727 -76.34,338.465 -28.77,25.793 -89.69,48.535 -137.67,54.387 -3.22,5.332 -0.01,12.324 5.36,14.765 21.42,10 39.04,7.415 74.67,-2.441 167.59,-64.746 207.91,-257.723 168.12,-394.242 10.94,5.207 10.29,12.519 18.69,16.937 3.83,2.012 7.83,1.719 12.01,1.743 181.47,-2.832 362.87,-12.832 544.38,-5.071 7.44,2.028 25,11.34 30,17.199 7.19,8.399 7.23,14.61 11.72,23.899 6.89,14.262 14.3,25.75 25.12,37.351 17.83,19.141 67.93,44.02 67.93,44.02 l 32.02,13.723 c 0,0 29.87,10.379 38.57,16.785 6.62,4.875 9.8,11.394 5.27,18.887 -82.26,114.191 -697.42,308.3 -1291.23,417.125 -5.06,-2.98 -4.16,-19.66 -4.18,-24.848 v -62.707 c -0.01,-6.055 0.05,-14.895 -4.57,-19.442 -6.04,-5.937 -20.43,-2.914 -24.99,3.68 -9.19,17.227 5.58,34.758 2.62,51.438 -2.32,4.414 -36.6,4.351 -38.98,-7.942 -12.32,-21.367 18.26,-67.644 -8.86,-80.476 -22.67,6.914 -18.84,94.566 -13.63,110.086 1.63,4.875 31.39,23.591 41.71,22.461 7.7,-0.84 13.8,-6.25 20.35,-10.43 8.55,29 -19.87,42.63 3.33,65.55 z m -604.13,-42.87 c -2.23,4.7 -7.15,13.54 -13.17,13.54 -4.47,0 -5.22,-4.76 -5.43,-8.2 -0.68,-11.12 5.78,-69.087 13.01,-78.665 6.46,-8.574 -0.72,-4.394 20.8,-9.726 12.18,-2.664 42.52,-5.508 37.03,0.996 -46.7,48.476 -52.24,82.055 -52.24,82.055 z m -840.3,-89.653 c 4.45,-3.633 14.38,-5.058 19.65,-2.937 6.33,2.547 6.96,11.367 1.11,14.234 -13.28,0.793 -48.2,11.535 -20.76,-11.297 z m 1312.01,-88.801 c 22.69,0.227 203.62,49.817 205.34,34.465 4.52,-10.808 -5.99,-17.414 -13.87,-20.801 0,0 -30.03,-13.664 -63.72,-23.339 l -71.05,-15.008 c -49.34,7.398 -99.71,2.437 -148.77,10.672 7.39,2.09 50.03,6.34 92.07,14.011 z M 5020.3,625.566 c 3.63,-1.921 8.99,-4.406 8.96,-9.179 -0.07,-11.844 -19.6,-6.184 -25.47,-4.91 -64.73,16.453 -130.76,31.277 -192.65,57.039 -2.18,1.035 -8.86,3.82 -11.05,1.23 28.98,-73.32 42.01,-123.215 -68,-154.687 -112.42,-32.149 -184.34,-40.008 -282.88,-40.008 -8.62,-1.571 -19.28,5.16 -9.19,12.48 102.63,33.489 213.73,31.528 313.41,74.332 67.54,39.242 21.93,89.828 -34.68,109.895 -163.62,60.762 -336.39,89.707 -502.19,143.191 -3.88,1.848 -14.92,9.477 -17.21,12.629 -4.39,6.082 -2.89,13.508 4.39,16.067 274.29,-52.864 555.39,-117.266 816.56,-218.079 v 0" /><path
         id="path40"
         style="fill:#ee222c;fill-opacity:1;fill-rule:nonzero;stroke:none"
         d="m 2105.05,122.82 c 4.76,-9.941 22.15,-8.679 31.83,-5.742 10.88,3.313 35.58,19.274 39.83,29.953 5.51,13.828 3.71,27.93 0.57,42.36 -9.74,25.339 -16.31,53.16 -16.34,80.168 -0.03,23.511 9.29,43.57 25.86,60.273 25.77,29.488 73.62,51.539 96.85,57.148 23.23,5.622 34.02,2.391 42.7,-2.359 8.66,-4.742 18.19,-14.68 15.98,-28.312 -2.21,-13.618 -15.63,-29.528 -30.28,-36.45 -5.31,-2.589 -18.94,-5.211 -20.2,3.153 -1.21,8.09 9.85,19.429 5.5,25.976 -4.9,7.383 -12.78,3.242 -19.03,1.231 -18.51,-6.848 -32.94,-22.297 -45.79,-36.739 -11.34,-15.558 -20.77,-30.98 -22.02,-50.582 -2.59,-36.226 12.5,-42.847 17.85,-64.097 9.77,-38.723 -14.61,-82.153 -37.39,-99.4807 -28.01,-21.2695 -80.49,-24.1797 -100.79,-19.789 -19.45,4.207 -24.59,25.5197 -17.75,42.1487 12.11,29.558 47.72,57.621 81.79,50.199 -15.45,-7.641 -48.45,-29.391 -49.17,-49.059 m 177.26,84.578 c -12.72,-2.777 -23.29,10.133 -14.35,19.852 6.59,6.52 16.21,9.609 25.03,12.391 7.85,1.988 15.75,-2.942 24.7,11.25 9.38,18.8 13.54,39.32 20.28,58.75 3.04,18.839 15.13,25.07 32.46,21.199 7.44,-2.461 17.9,-12.879 17.08,-21.238 -0.5,-5.211 -4.41,-9.762 -6.4,-14.692 -3.56,-14.172 -19.95,-37.16 -14.71,-51.621 1.84,-2.777 13.55,-7.16 17.33,-7.449 8.16,-0.66 22.73,2.93 28.01,-4.961 5.89,4.262 33.36,25.512 33.36,25.512 15.33,5.5 32.86,-3.672 29.43,-21.52 -9.04,-16.762 -18.05,-33.641 -26.57,-50.832 -1.65,-8.629 2.62,-8.988 10.26,-7.141 29.14,14.25 55.46,35.473 81.1,56.153 6.2,4.347 19.7,11.039 27.2,11.14 13.66,0.161 14.86,-10.171 13.06,-21.332 -3.52,-18.621 -21.04,-44.789 -10.92,-63.968 5.21,-7.563 23.22,-7.211 31.1,-4.68 6.38,2.059 15.19,5.199 18.56,11.121 3.09,5.43 17.92,37.59 17.66,40.109 -0.4,3.899 -18.22,-3.23 -30.94,5.5 -3.54,2.758 -6.59,4.278 -5.13,9.278 0,0 4.55,11.453 7.2,13.863 11.3,8.609 48.89,4.539 49.91,15.43 4.56,20.547 13.36,48.558 15.24,61.179 1.89,12.637 7.31,16.618 10.84,18.899 3.54,2.289 21.9,1.949 26.07,0.941 9.09,-2.191 14.24,-13.582 12.96,-22.269 -0.53,-3.66 -2.63,-7.282 -4.1,-10.684 0,0 -5.23,-13.109 -8.02,-20.008 -2.82,-6.961 -11.74,-22.519 -10.34,-33.172 1.27,-3.578 5.22,-4.238 8.28,-5.589 10.78,-4.719 15.94,-2.418 21.83,-2.207 5.89,0.199 13.96,0.16 16.16,0.707 2.2,0.543 13.68,1.472 18.06,2.492 5.65,1.301 18.6,-4.121 24.62,2.469 7.79,20.98 18.77,59.871 20.67,73.32 1.89,13.422 9.2,12.5 12.27,14.281 3.08,1.789 11.62,2.25 14.4,2.461 11.17,0.797 19.5,-5.191 16.22,-19.621 -3.25,-14.41 -20.63,-64.91 -18.33,-70.133 2.19,-4.887 14.65,-4.418 17.36,-4.746 2.7,-0.332 31.3,-0.953 31.3,-0.953 6.57,-0.731 9.68,-6.758 16.25,-5.578 2.6,0.437 4.33,1.66 6.62,2.738 l 7.11,2.992 c 20.87,12.559 44.47,23.231 69,25.547 4.23,0.332 13.68,0.613 17.33,0 5.66,-1.738 6.5,-4.488 13.37,-4.957 11.16,-0.742 12.54,3.57 17.34,4.238 l 18.26,-4.98 c 6.91,-11.801 -10.8,-53.789 -14.66,-68.59 -31.47,-67.48 -84.38,-183.77728 -173.06,-188.2499375 -13.39,-0.1601565 -28.42,-0.4101565 -38.86,9.2421875 -17.03,15.73825 -5.16,41.07035 14.84,46.78905 -3.56,-12.5586 -13.57,-25.4297 -6.67,-32.0117 7.01,-6.707 33.86,4.4805 44.99,10.582 25.79,14.3985 45.46,37.1407 64.39,59.3789 7.14,9.4025 12.56,16.6095 18.94,28.2895 6.41,11.742 23.57,38.8 30.46,60.531 l -1.34,1.332 c -19.34,-14.371 -40.89,-27 -62.71,-37.434 -13.43,-7.539 -27.84,-7.937 -42.69,-7.937 -7.01,0.14 -19.94,5.179 -22.09,12.629 -1.87,9.398 1.32,17.91 5.41,27.031 l 10.77,20.367 c 5.35,9.32 6.44,12.211 15.25,22.524 -22.98,-6.192 -44.48,-6.071 -56.05,-7.793 -7.38,-2.539 -10.94,0.043 -14.83,-4.45 L 2802.1,182.84 c 0,0 -11.43,-19.039 -15.82,-30.699 -5.21,-13.84 -10.91,-31.68 -28.96,-32.02 h -9.34 c -2.77,0 -7.77,-0.289 -10.22,1.359 -4.67,3.551 -2.3,16.719 0,21.321 l 21.7,42.469 c 2.62,4.98 7.67,10.039 8.34,14.929 v 3.961 c -1.83,12.809 -17.03,2.879 -22.48,3.012 -6.92,0.16 -12.48,5.558 -14.68,11.699 0,0 -27.05,-5.562 -29.58,-5.949 -2.53,-0.41 -18.91,-0.192 -19.79,-6.063 -0.87,-5.898 -27.93,-56.41 -34.88,-72.007 -5.19,-8.223 -16.93,-14.661 -26.49,-14.731 h -16.02 c -6.95,5.707 -0.11,15.059 -5.39,16.918 -2.63,0.93 -6.82,-2.16 -9.22,-3.391 -9.27,-5.898 -20.24,-4.179 -30.76,-4.179 -11.73,0.16 -28.07,10.633 -32.39,21.582 -3.06,9.57 0.37,18.621 2.93,27.668 0.34,1.691 0.51,4.679 -1.25,5.722 -2.72,1.61 -5.9,-2.191 -7.54,-3.832 -10.28,-10.328 -23.1,-17.629 -35.13,-25.73 -19,-10.488 -38.31,-18.551 -60.05,-20.418 -18.98,0.711 -24.24,7.32 -24.01,25.699 2.05,15.488 9.6,29.211 16.98,42.692 1.69,3.296 7.52,13.296 4.77,16.558 -2.59,3.039 -13.2,6.61 -13.97,3.57 -0.77,-3.031 -14.74,-5.14 -22.46,-6.652 0,0 -17.4,-1.43 -24.01,-3.406 l -6.55,-1.473 c -4.02,-1.469 -10.01,-7.84 -12.23,-11.469 l -17.99,-34.492 c -4.21,-8.949 -7.54,-18.316 -12.91,-26.687 -6.31,-9.813 -12.06,-18.43 -25.05,-18.531 -4.85,0.14 -9.71,-0.192 -14.56,0 -15.26,4.121 -3.03,19.871 0,27.992 3.39,8.476 27.85,47.16 27.9,62.59 -15.8,-0.012 -10.27,-1.614 -18.68,-3.454 z m 1099.46,28.75 c 12.17,6.75 25.1,8.282 38.7,8.063 2.93,-0.051 23.8,-5.199 26.68,-6.391 l 17.36,-7.191 c 4.67,-0.199 6.08,2.312 9.72,3.57 0,0 13.03,4.77 16.97,5.602 6.26,1.379 16.7,-1.539 21.82,3.488 15.19,20.801 13.28,68.43 31.66,85.539 4.98,3.473 22.41,3.434 27.32,0.934 2.55,-1.282 7.46,-6.203 8.74,-8.742 1.56,-3.059 -10.22,-45.739 -16.27,-62.071 -1.3,-5.687 -4.77,-8.629 -3.07,-13.328 1.57,-4.41 7.66,-9.699 15.19,-10.269 7.53,-0.571 84.67,4.769 74.72,-8.481 -10.18,-13.57 -97.29,-15.449 -97.29,-15.449 -1.53,-0.582 -2.24,-1.113 -3.51,-2.082 -11.95,-9.36 -12.34,-14.121 -18.73,-26.27 l -17.37,-33.832 c -4.45,-10.758 -11.25,-22.797 -22.11,-28.347 -8.56,-1.039 -18.78,-2.34 -26.99,0.589 -6.65,5.258 1.6,21.668 4.35,27.231 8.81,15.828 16.24,32.449 24.44,48.809 2.99,5.492 6.15,11.859 -2.92,13.128 -7.7,1.09 -11.23,-3.949 -17.34,-3.519 -7.57,0.512 -14.42,7.152 -29.86,7.172 l -34.18,-2.11 c -53.12,-0.953 -78.09,-39.043 -93.16,-87.632 -11.6,-12.508 -21.25,-9.778 -29.37,-7.68 -8.26,3.012 -8.44,14.68 -6.55,21.801 16.02,35.05 26.52,72.109 41.38,107.832 1.66,3.199 4.61,10.547 6.69,12.566 5.18,5.102 9.17,4.063 15.63,3.863 9.04,-0.3 18.33,-2.019 21.87,-12.05 2.12,-6 -2.63,-11.141 -4.53,-20.012 3.77,0.133 16.51,3.812 20.01,5.269 z M 3244.4,129.711 c -3.71,0.301 -16,3.508 -21.41,6.211 -7.09,3.527 -14.45,11.859 -20.07,17.5 -3.89,3.887 -14.62,16.457 -19.72,16.25 -37.59,-17.121 -75.95,-31.274 -116.32,-40.203 -16.19,0.332 -28.47,10.711 -29.15,26.679 -0.32,7.422 5.87,18.993 17.2,30.461 42.01,40.121 92.48,75.25 152.01,80.493 17.52,-1.692 31.59,-11.383 32,-30.84 0.22,-10.524 -10.43,-10.852 -18.61,-10.731 -23.29,6.289 -25.76,5.207 -47.67,-1.152 -20.23,-9.379 -39.77,-21.777 -55.93,-37.289 -2.68,-2.481 -11.72,-9.102 -8.56,-13.352 1.8,-2.41 5.5,-2.047 8.08,-1.597 33.16,7.859 57.32,21.031 85.36,38.711 6.01,4.109 9.58,9.367 17.4,10.218 18.02,-0.34 28.93,-14.511 21.28,-30.23 -6.04,-14.25 -6.61,-27.168 6.95,-36.949 3.97,-1.59 19.34,-1.2 23.67,0 2.84,0.64 5.46,2.398 8.13,3.589 -3.77,-13.691 -19.71,-27.402 -34.64,-27.769 z M 2984.07,226.5 c -19.44,11 -63.53,-32.781 -73.29,-46.328 14.06,1.539 74.22,30.117 73.29,46.328" /></g></g></svg>